<?xml version="1.0" encoding="UTF-8" standalone="no"?><!DOCTYPE svg PUBLIC "-//W3C//DTD SVG 1.1//EN" "http://www.w3.org/Graphics/SVG/1.1/DTD/svg11.dtd"><svg width="100%" height="100%" viewBox="0 0 110 134" version="1.1" xmlns="http://www.w3.org/2000/svg" xmlns:xlink="http://www.w3.org/1999/xlink" xml:space="preserve" xmlns:serif="http://www.serif.com/" style="fill-rule:evenodd;clip-rule:evenodd;stroke-linejoin:round;stroke-miterlimit:1.41421;"><rect id="Logo" x="0" y="0" width="109.153" height="133.226" style="fill:none;"/><path d="M99.85,73.669l-15.379,15.389l-11.927,11.928l-12.239,0l-14.978,14.956l-0.036,0l0.011,-14.956l-18.24,0l0,-54.831l14.879,-14.879l57.909,0l0,42.393Z" style="fill:#9147ff;"/><path d="M69.581,82.844l0.035,0.036l-10.641,10.641l-0.096,-0.096l0,-10.581l-13.588,0l0,-45.548l48.65,0l0,33.227l-12.321,12.321l-12.039,0Zm-1.528,-34.903l-6.125,0l0,18.376l6.125,0l0,-18.376Zm16.659,0l-6.124,0l0,18.376l6.124,0l0,-18.376Z" style="fill:#fff;"/><g><path d="M95.671,123.878l-7.771,-12.887l0.116,-0.07l20.61,5.103l0.018,0.031l-12.973,7.823Z" style="fill:#9147ff;"/><path d="M54.974,6.21l0,4.984c-28.288,4.131 -50.039,28.518 -50.039,57.944c0,32.32 26.24,58.561 58.561,58.561c11.298,0 21.854,-3.207 30.806,-8.76l3.576,3.577c-9.912,6.401 -21.716,10.118 -34.382,10.118c-35.045,0 -63.496,-28.452 -63.496,-63.496c0,-32.155 23.953,-58.759 54.974,-62.928Z" style="fill:#9147ff;"/><rect x="58.216" y="3.042" width="10.774" height="10.774" style="fill:#fff;"/><path d="M72.017,0l0,17.043l-17.043,0l0,-17.043l17.043,0Zm-4.518,4.518l-8.007,0l0,8.007l8.007,0l0,-8.007Z" style="fill:#9147ff;"/></g></svg>